<svg width="65" height="146" viewBox="0 0 65 146" fill="none" xmlns="http://www.w3.org/2000/svg">
<path d="M27.1964 134.791C27.3988 133.644 27.0143 133.014 26.043 132.899C13.3647 131.432 4.06588 121.04 4.04564 108.301C4.03552 96.0378 4.04564 83.7643 4.06588 71.5008C4.06588 70.9342 3.99505 70.489 3.44866 70.0843C3.07428 69.8111 2.80108 69.1635 2.79097 68.6677C2.73025 65.9661 2.74038 63.2645 2.77073 60.5629C2.78085 59.3588 3.44866 58.7314 4.67298 58.7011C5.60387 58.6809 6.54488 58.6809 7.47576 58.7011C8.81139 58.7314 9.41849 59.3588 9.45896 60.6944C9.46908 61.2408 9.45896 61.7872 9.45896 62.4854C10.3393 62.4854 11.2196 62.708 11.8773 62.4145C12.3933 62.1818 12.8284 61.3825 12.9599 60.7551C13.1319 59.9254 13.0307 59.0249 12.9296 58.1648C12.8992 57.8512 12.6159 57.497 12.3528 57.2744C11.5535 56.6066 11.1386 55.7769 11.1386 54.7448C11.1386 53.4598 11.1184 52.1849 11.1386 50.8998C11.1588 49.8172 11.5939 48.9166 12.5552 48.4006C13.1623 48.0768 13.2331 47.6518 13.2432 47.065C13.4557 35.4592 13.6884 23.8535 13.9212 12.2477C13.9414 11.0335 14.0527 9.81931 13.9819 8.61523C13.8706 6.64215 14.761 5.21546 16.2585 4.09232C18.2518 2.60492 20.5689 1.88652 22.9771 1.47167C29.807 0.318179 36.647 0.237229 43.4162 1.79546C45.2982 2.23055 47.1195 3.1412 48.7991 4.12268C50.3978 5.05357 51.0859 6.63204 51.1162 8.595C51.3186 21.4858 51.5918 34.3766 51.8751 47.2572C51.8751 47.6114 52.1584 48.0869 52.462 48.2994C53.4232 48.9672 53.9393 49.8374 53.9494 51.001C53.9494 52.2456 53.9494 53.5003 53.9494 54.7448C53.9494 55.7769 53.5143 56.5864 52.7453 57.2845C52.4316 57.5678 52.1483 58.0738 52.1685 58.4684C52.209 59.6016 51.7335 60.7754 52.5834 61.8681C52.9274 62.3134 53.1804 62.5157 53.7065 62.4854C54.2934 62.455 54.8803 62.4854 55.6391 62.4854C55.6391 61.8074 55.6189 61.1902 55.6391 60.5831C55.6796 59.3689 56.307 58.7315 57.511 58.691C58.4824 58.6606 59.4538 58.6606 60.4251 58.691C61.6393 58.7213 62.3071 59.3487 62.3274 60.5528C62.3577 63.2544 62.3577 65.956 62.3071 68.6576C62.3071 69.123 62.0744 69.7908 61.7304 70.0033C61.012 70.4485 61.0525 71.0354 61.0525 71.6931C61.0525 83.825 61.0525 95.9569 61.0525 108.079C61.0525 121.152 51.6525 131.594 38.6403 132.909C37.1731 133.061 37.9421 133.982 37.76 134.771C38.276 134.771 38.6808 134.771 39.0855 134.771C46.2594 134.771 53.4333 134.771 60.6073 134.771C63.238 134.771 64.5332 136.076 64.5433 138.747C64.5433 139.678 64.5635 140.619 64.5433 141.55C64.4927 143.614 63.1065 145.021 61.0525 145.021C42.0603 145.031 23.0682 145.031 4.076 145.021C2.02197 145.021 0.635758 143.614 0.585166 141.55C0.564929 140.619 0.585166 139.678 0.585166 138.747C0.585166 136.076 1.88031 134.771 4.51108 134.771C11.6546 134.771 18.7881 134.771 25.9317 134.771C26.3465 134.771 26.7512 134.771 27.2268 134.771L27.1964 134.791ZM9.44884 66.7148C9.44884 67.4332 9.53991 68.0302 9.41849 68.5867C9.30719 69.123 8.9834 69.6289 8.75068 70.145C8.55843 70.5801 8.18405 71.005 8.18405 71.4401C8.1537 83.8452 8.13346 96.2503 8.17393 108.645C8.20429 118.146 14.9634 126.423 24.2621 128.417C25.2234 128.619 26.215 128.73 27.328 128.902C27.328 128.234 27.3179 127.759 27.328 127.283C27.3482 126.454 27.8035 125.948 28.6029 125.938C31.2033 125.897 33.8037 125.907 36.394 125.938C37.2541 125.948 37.6993 126.484 37.7094 127.354C37.7094 127.82 37.7094 128.295 37.7094 128.801C38.0838 128.801 38.2862 128.821 38.4885 128.801C48.6474 127.87 56.8331 118.986 56.8635 108.777C56.8938 96.4122 56.8635 84.0375 56.8837 71.6728C56.8837 70.9848 56.8331 70.4485 56.1754 69.9932C55.8314 69.7503 55.6897 69.1129 55.6088 68.6272C55.5177 68.0606 55.5886 67.4636 55.5886 66.725C54.7487 66.725 54 66.7047 53.2512 66.7351C53.0792 66.7351 52.8465 66.8666 52.7453 67.0083C52.1584 67.8481 51.6829 68.6778 51.7436 69.8111C51.8245 71.4604 51.6829 73.1299 51.5918 74.7893C51.0555 84.2297 50.58 93.6803 49.9223 103.111C49.6187 107.492 48.9914 111.853 48.445 116.224C48.1819 118.349 47.1701 119.34 45.0048 119.614C43.0114 119.867 41.008 120.079 39.0046 120.15C32.7008 120.383 26.3971 120.484 20.1237 119.644C17.8066 119.33 16.8454 118.318 16.5115 116.052C15.1151 106.581 14.5181 97.0396 14.0122 87.4878C13.6884 81.265 13.4962 75.0321 13.1319 68.8093C13.0915 68.0909 12.3933 67.1904 11.7457 66.7958C11.1993 66.4619 10.2887 66.725 9.41849 66.725L9.44884 66.7148Z" fill="#ABE443"/>
</svg>
